<svg width="453" height="109" viewBox="0 0 453 109" fill="none" xmlns="http://www.w3.org/2000/svg">
<path d="M7.56 26L0.9 0.799998H5.832L10.368 20.852L15.696 0.799998H20.772L25.956 20.852L30.492 0.799998H35.46L28.62 26H23.148L18.144 7.316L12.996 26H7.56ZM45.4691 26.432C43.6691 26.432 42.0731 26.048 40.6811 25.28C39.2891 24.512 38.1971 23.432 37.4051 22.04C36.6131 20.648 36.2171 19.04 36.2171 17.216C36.2171 15.368 36.6011 13.724 37.3691 12.284C38.1611 10.844 39.2411 9.728 40.6091 8.936C42.0011 8.12 43.6331 7.712 45.5051 7.712C47.2571 7.712 48.8051 8.096 50.1491 8.864C51.4931 9.632 52.5371 10.688 53.2811 12.032C54.0491 13.352 54.4331 14.828 54.4331 16.46C54.4331 16.724 54.4211 17 54.3971 17.288C54.3971 17.576 54.3851 17.876 54.3611 18.188H40.7891C40.8851 19.58 41.3651 20.672 42.2291 21.464C43.1171 22.256 44.1851 22.652 45.4331 22.652C46.3691 22.652 47.1491 22.448 47.7731 22.04C48.4211 21.608 48.9011 21.056 49.2131 20.384H53.8931C53.5571 21.512 52.9931 22.544 52.2011 23.48C51.4331 24.392 50.4731 25.112 49.3211 25.64C48.1931 26.168 46.9091 26.432 45.4691 26.432ZM45.5051 11.456C44.3771 11.456 43.3811 11.78 42.5171 12.428C41.6531 13.052 41.1011 14.012 40.8611 15.308H49.7531C49.6811 14.132 49.2491 13.196 48.4571 12.5C47.6651 11.804 46.6811 11.456 45.5051 11.456ZM58.3088 26V0.079999H62.9168V26H58.3088ZM76.3732 26.432C74.5492 26.432 72.9412 26.036 71.5492 25.244C70.1572 24.452 69.0532 23.348 68.2372 21.932C67.4452 20.516 67.0492 18.896 67.0492 17.072C67.0492 15.248 67.4452 13.628 68.2372 12.212C69.0532 10.796 70.1572 9.692 71.5492 8.9C72.9412 8.108 74.5492 7.712 76.3732 7.712C78.6532 7.712 80.5732 8.312 82.1332 9.512C83.6932 10.688 84.6892 12.32 85.1212 14.408H80.2612C80.0212 13.544 79.5412 12.872 78.8212 12.392C78.1252 11.888 77.2972 11.636 76.3372 11.636C75.0652 11.636 73.9852 12.116 73.0972 13.076C72.2092 14.036 71.7652 15.368 71.7652 17.072C71.7652 18.776 72.2092 20.108 73.0972 21.068C73.9852 22.028 75.0652 22.508 76.3372 22.508C77.2972 22.508 78.1252 22.268 78.8212 21.788C79.5412 21.308 80.0212 20.624 80.2612 19.736H85.1212C84.6892 21.752 83.6932 23.372 82.1332 24.596C80.5732 25.82 78.6532 26.432 76.3732 26.432ZM97.7791 26.432C96.0511 26.432 94.4911 26.036 93.0991 25.244C91.7311 24.452 90.6391 23.36 89.8231 21.968C89.0311 20.552 88.6351 18.92 88.6351 17.072C88.6351 15.224 89.0431 13.604 89.8591 12.212C90.6751 10.796 91.7671 9.692 93.1351 8.9C94.5271 8.108 96.0871 7.712 97.8151 7.712C99.5191 7.712 101.055 8.108 102.423 8.9C103.815 9.692 104.907 10.796 105.699 12.212C106.515 13.604 106.923 15.224 106.923 17.072C106.923 18.92 106.515 20.552 105.699 21.968C104.907 23.36 103.815 24.452 102.423 25.244C101.031 26.036 99.4831 26.432 97.7791 26.432ZM97.7791 22.436C98.9791 22.436 100.023 21.992 100.911 21.104C101.799 20.192 102.243 18.848 102.243 17.072C102.243 15.296 101.799 13.964 100.911 13.076C100.023 12.164 98.9911 11.708 97.8151 11.708C96.5911 11.708 95.5351 12.164 94.6471 13.076C93.7831 13.964 93.3511 15.296 93.3511 17.072C93.3511 18.848 93.7831 20.192 94.6471 21.104C95.5351 21.992 96.5791 22.436 97.7791 22.436ZM111.043 26V8.144H115.111L115.507 10.556C116.083 9.692 116.839 9.008 117.775 8.504C118.735 7.976 119.839 7.712 121.087 7.712C123.847 7.712 125.803 8.78 126.955 10.916C127.603 9.932 128.467 9.152 129.547 8.576C130.651 8 131.851 7.712 133.147 7.712C135.475 7.712 137.263 8.408 138.511 9.8C139.759 11.192 140.383 13.232 140.383 15.92V26H135.775V16.352C135.775 14.816 135.475 13.64 134.875 12.824C134.299 12.008 133.399 11.6 132.175 11.6C130.927 11.6 129.919 12.056 129.151 12.968C128.407 13.88 128.035 15.152 128.035 16.784V26H123.427V16.352C123.427 14.816 123.127 13.64 122.527 12.824C121.927 12.008 121.003 11.6 119.755 11.6C118.531 11.6 117.535 12.056 116.767 12.968C116.023 13.88 115.651 15.152 115.651 16.784V26H111.043ZM153.434 26.432C151.634 26.432 150.038 26.048 148.646 25.28C147.254 24.512 146.162 23.432 145.37 22.04C144.578 20.648 144.182 19.04 144.182 17.216C144.182 15.368 144.566 13.724 145.334 12.284C146.126 10.844 147.206 9.728 148.574 8.936C149.966 8.12 151.598 7.712 153.47 7.712C155.222 7.712 156.77 8.096 158.114 8.864C159.458 9.632 160.502 10.688 161.246 12.032C162.014 13.352 162.398 14.828 162.398 16.46C162.398 16.724 162.386 17 162.362 17.288C162.362 17.576 162.35 17.876 162.326 18.188H148.754C148.85 19.58 149.33 20.672 150.194 21.464C151.082 22.256 152.15 22.652 153.398 22.652C154.334 22.652 155.114 22.448 155.738 22.04C156.386 21.608 156.866 21.056 157.178 20.384H161.858C161.522 21.512 160.958 22.544 160.166 23.48C159.398 24.392 158.438 25.112 157.286 25.64C156.158 26.168 154.874 26.432 153.434 26.432ZM153.47 11.456C152.342 11.456 151.346 11.78 150.482 12.428C149.618 13.052 149.066 14.012 148.826 15.308H157.718C157.646 14.132 157.214 13.196 156.422 12.5C155.63 11.804 154.646 11.456 153.47 11.456ZM182.808 26C180.936 26 179.436 25.544 178.308 24.632C177.18 23.72 176.616 22.1 176.616 19.772V11.996H173.556V8.144H176.616L177.156 3.356H181.224V8.144H186.048V11.996H181.224V19.808C181.224 20.672 181.404 21.272 181.764 21.608C182.148 21.92 182.796 22.076 183.708 22.076H185.94V26H182.808ZM198.115 26.432C196.387 26.432 194.827 26.036 193.435 25.244C192.067 24.452 190.975 23.36 190.159 21.968C189.367 20.552 188.971 18.92 188.971 17.072C188.971 15.224 189.379 13.604 190.195 12.212C191.011 10.796 192.103 9.692 193.471 8.9C194.863 8.108 196.423 7.712 198.151 7.712C199.855 7.712 201.391 8.108 202.759 8.9C204.151 9.692 205.243 10.796 206.035 12.212C206.851 13.604 207.259 15.224 207.259 17.072C207.259 18.92 206.851 20.552 206.035 21.968C205.243 23.36 204.151 24.452 202.759 25.244C201.367 26.036 199.819 26.432 198.115 26.432ZM198.115 22.436C199.315 22.436 200.359 21.992 201.247 21.104C202.135 20.192 202.579 18.848 202.579 17.072C202.579 15.296 202.135 13.964 201.247 13.076C200.359 12.164 199.327 11.708 198.151 11.708C196.927 11.708 195.871 12.164 194.983 13.076C194.119 13.964 193.687 15.296 193.687 17.072C193.687 18.848 194.119 20.192 194.983 21.104C195.871 21.992 196.915 22.436 198.115 22.436ZM228.669 26.432C226.821 26.432 225.189 26.12 223.773 25.496C222.357 24.848 221.241 23.936 220.425 22.76C219.609 21.56 219.189 20.108 219.165 18.404H224.025C224.073 19.58 224.493 20.576 225.285 21.392C226.101 22.184 227.217 22.58 228.633 22.58C229.857 22.58 230.829 22.292 231.549 21.716C232.269 21.116 232.629 20.324 232.629 19.34C232.629 18.308 232.305 17.504 231.657 16.928C231.033 16.352 230.193 15.884 229.137 15.524C228.081 15.164 226.953 14.78 225.753 14.372C223.809 13.7 222.321 12.836 221.289 11.78C220.281 10.724 219.777 9.32 219.777 7.568C219.753 6.08 220.101 4.808 220.821 3.752C221.565 2.672 222.573 1.844 223.845 1.268C225.117 0.667999 226.581 0.368 228.237 0.368C229.917 0.368 231.393 0.667999 232.665 1.268C233.961 1.868 234.969 2.708 235.689 3.788C236.433 4.868 236.829 6.152 236.877 7.64H231.945C231.921 6.752 231.573 5.972 230.901 5.3C230.253 4.604 229.341 4.256 228.165 4.256C227.157 4.232 226.305 4.484 225.609 5.012C224.937 5.516 224.601 6.26 224.601 7.244C224.601 8.084 224.865 8.756 225.393 9.26C225.921 9.74 226.641 10.148 227.553 10.484C228.465 10.82 229.509 11.18 230.685 11.564C231.933 11.996 233.073 12.5 234.105 13.076C235.137 13.652 235.965 14.42 236.589 15.38C237.213 16.316 237.525 17.528 237.525 19.016C237.525 20.336 237.189 21.56 236.517 22.688C235.845 23.816 234.849 24.728 233.529 25.424C232.209 26.096 230.589 26.432 228.669 26.432ZM241.438 33.92V8.144H245.542L246.046 10.7C246.622 9.908 247.378 9.212 248.314 8.612C249.274 8.012 250.51 7.712 252.022 7.712C253.702 7.712 255.202 8.12 256.522 8.936C257.842 9.752 258.886 10.868 259.654 12.284C260.422 13.7 260.806 15.308 260.806 17.108C260.806 18.908 260.422 20.516 259.654 21.932C258.886 23.324 257.842 24.428 256.522 25.244C255.202 26.036 253.702 26.432 252.022 26.432C250.678 26.432 249.502 26.18 248.494 25.676C247.486 25.172 246.67 24.464 246.046 23.552V33.92H241.438ZM251.05 22.4C252.514 22.4 253.726 21.908 254.686 20.924C255.646 19.94 256.126 18.668 256.126 17.108C256.126 15.548 255.646 14.264 254.686 13.256C253.726 12.248 252.514 11.744 251.05 11.744C249.562 11.744 248.338 12.248 247.378 13.256C246.442 14.24 245.974 15.512 245.974 17.072C245.974 18.632 246.442 19.916 247.378 20.924C248.338 21.908 249.562 22.4 251.05 22.4ZM264.922 26V0.079999H269.53V26H264.922ZM280.394 26.432C278.858 26.432 277.598 26.192 276.614 25.712C275.63 25.208 274.898 24.548 274.418 23.732C273.938 22.916 273.698 22.016 273.698 21.032C273.698 19.376 274.346 18.032 275.642 17C276.938 15.968 278.882 15.452 281.474 15.452H286.01V15.02C286.01 13.796 285.662 12.896 284.966 12.32C284.27 11.744 283.406 11.456 282.374 11.456C281.438 11.456 280.622 11.684 279.926 12.14C279.23 12.572 278.798 13.22 278.63 14.084H274.13C274.25 12.788 274.682 11.66 275.426 10.7C276.194 9.74 277.178 9.008 278.378 8.504C279.578 7.976 280.922 7.712 282.41 7.712C284.954 7.712 286.958 8.348 288.422 9.62C289.886 10.892 290.618 12.692 290.618 15.02V26H286.694L286.262 23.12C285.734 24.08 284.99 24.872 284.03 25.496C283.094 26.12 281.882 26.432 280.394 26.432ZM281.438 22.832C282.758 22.832 283.778 22.4 284.498 21.536C285.242 20.672 285.71 19.604 285.902 18.332H281.978C280.754 18.332 279.878 18.56 279.35 19.016C278.822 19.448 278.558 19.988 278.558 20.636C278.558 21.332 278.822 21.872 279.35 22.256C279.878 22.64 280.574 22.832 281.438 22.832ZM302.396 26.432C300.812 26.432 299.42 26.18 298.22 25.676C297.02 25.148 296.06 24.428 295.34 23.516C294.62 22.604 294.188 21.548 294.044 20.348H298.688C298.832 21.044 299.216 21.644 299.84 22.148C300.488 22.628 301.316 22.868 302.324 22.868C303.332 22.868 304.064 22.664 304.52 22.256C305 21.848 305.24 21.38 305.24 20.852C305.24 20.084 304.904 19.568 304.232 19.304C303.56 19.016 302.624 18.74 301.424 18.476C300.656 18.308 299.876 18.104 299.084 17.864C298.292 17.624 297.56 17.324 296.888 16.964C296.24 16.58 295.712 16.1 295.304 15.524C294.896 14.924 294.692 14.192 294.692 13.328C294.692 11.744 295.316 10.412 296.564 9.332C297.836 8.252 299.612 7.712 301.892 7.712C304.004 7.712 305.684 8.204 306.932 9.188C308.204 10.172 308.96 11.528 309.2 13.256H304.844C304.58 11.936 303.584 11.276 301.856 11.276C300.992 11.276 300.32 11.444 299.84 11.78C299.384 12.116 299.156 12.536 299.156 13.04C299.156 13.568 299.504 13.988 300.2 14.3C300.896 14.612 301.82 14.9 302.972 15.164C304.22 15.452 305.36 15.776 306.392 16.136C307.448 16.472 308.288 16.988 308.912 17.684C309.536 18.356 309.848 19.328 309.848 20.6C309.872 21.704 309.584 22.7 308.984 23.588C308.384 24.476 307.52 25.172 306.392 25.676C305.264 26.18 303.932 26.432 302.396 26.432ZM313.93 26V0.079999H318.538V10.88C319.138 9.896 319.942 9.128 320.95 8.576C321.982 8 323.158 7.712 324.478 7.712C326.686 7.712 328.39 8.408 329.59 9.8C330.814 11.192 331.426 13.232 331.426 15.92V26H326.854V16.352C326.854 14.816 326.542 13.64 325.918 12.824C325.318 12.008 324.358 11.6 323.038 11.6C321.742 11.6 320.662 12.056 319.798 12.968C318.958 13.88 318.538 15.152 318.538 16.784V26H313.93ZM344.518 26V0.799998H353.842C355.858 0.799998 357.526 1.136 358.846 1.808C360.166 2.48 361.15 3.404 361.798 4.58C362.446 5.756 362.77 7.076 362.77 8.54C362.77 9.932 362.458 11.216 361.834 12.392C361.21 13.544 360.238 14.48 358.918 15.2C357.598 15.896 355.906 16.244 353.842 16.244H349.126V26H344.518ZM349.126 12.5H353.554C355.162 12.5 356.314 12.152 357.01 11.456C357.73 10.736 358.09 9.764 358.09 8.54C358.09 7.292 357.73 6.32 357.01 5.624C356.314 4.904 355.162 4.544 353.554 4.544H349.126V12.5ZM371.309 26.432C369.773 26.432 368.513 26.192 367.529 25.712C366.545 25.208 365.813 24.548 365.333 23.732C364.853 22.916 364.613 22.016 364.613 21.032C364.613 19.376 365.261 18.032 366.557 17C367.853 15.968 369.797 15.452 372.389 15.452H376.925V15.02C376.925 13.796 376.577 12.896 375.881 12.32C375.185 11.744 374.321 11.456 373.289 11.456C372.353 11.456 371.537 11.684 370.841 12.14C370.145 12.572 369.713 13.22 369.545 14.084H365.045C365.165 12.788 365.597 11.66 366.341 10.7C367.109 9.74 368.093 9.008 369.293 8.504C370.493 7.976 371.837 7.712 373.325 7.712C375.869 7.712 377.873 8.348 379.337 9.62C380.801 10.892 381.533 12.692 381.533 15.02V26H377.609L377.177 23.12C376.649 24.08 375.905 24.872 374.945 25.496C374.009 26.12 372.797 26.432 371.309 26.432ZM372.353 22.832C373.673 22.832 374.693 22.4 375.413 21.536C376.157 20.672 376.625 19.604 376.817 18.332H372.893C371.669 18.332 370.793 18.56 370.265 19.016C369.737 19.448 369.473 19.988 369.473 20.636C369.473 21.332 369.737 21.872 370.265 22.256C370.793 22.64 371.489 22.832 372.353 22.832ZM393.49 20.672C392.626 20.672 391.822 20.576 391.078 20.384L389.746 21.716C390.154 21.932 390.706 22.112 391.402 22.256C392.098 22.4 393.226 22.544 394.786 22.688C397.162 22.904 398.89 23.468 399.97 24.38C401.05 25.292 401.59 26.552 401.59 28.16C401.59 29.216 401.302 30.212 400.726 31.148C400.15 32.108 399.262 32.876 398.062 33.452C396.862 34.052 395.326 34.352 393.454 34.352C390.91 34.352 388.858 33.872 387.298 32.912C385.738 31.976 384.958 30.56 384.958 28.664C384.958 27.056 385.738 25.664 387.298 24.488C386.818 24.272 386.398 24.044 386.038 23.804C385.702 23.564 385.402 23.312 385.138 23.048V22.22L388.27 18.908C386.878 17.684 386.182 16.112 386.182 14.192C386.182 12.992 386.47 11.9 387.046 10.916C387.646 9.932 388.486 9.152 389.566 8.576C390.646 8 391.954 7.712 393.49 7.712C394.498 7.712 395.434 7.856 396.298 8.144H403.066V10.952L400.006 11.168C400.486 12.08 400.726 13.088 400.726 14.192C400.726 15.392 400.438 16.484 399.862 17.468C399.286 18.452 398.446 19.232 397.342 19.808C396.262 20.384 394.978 20.672 393.49 20.672ZM393.49 17.144C394.426 17.144 395.194 16.892 395.794 16.388C396.418 15.884 396.73 15.164 396.73 14.228C396.73 13.292 396.418 12.572 395.794 12.068C395.194 11.564 394.426 11.312 393.49 11.312C392.506 11.312 391.714 11.564 391.114 12.068C390.514 12.572 390.214 13.292 390.214 14.228C390.214 15.164 390.514 15.884 391.114 16.388C391.714 16.892 392.506 17.144 393.49 17.144ZM389.17 28.196C389.17 29.084 389.578 29.744 390.394 30.176C391.234 30.632 392.254 30.86 393.454 30.86C394.606 30.86 395.542 30.62 396.262 30.14C396.982 29.684 397.342 29.06 397.342 28.268C397.342 27.62 397.102 27.08 396.622 26.648C396.166 26.216 395.242 25.952 393.85 25.856C392.866 25.784 391.954 25.676 391.114 25.532C390.418 25.916 389.914 26.336 389.602 26.792C389.314 27.248 389.17 27.716 389.17 28.196ZM414.399 26.432C412.599 26.432 411.003 26.048 409.611 25.28C408.219 24.512 407.127 23.432 406.335 22.04C405.543 20.648 405.147 19.04 405.147 17.216C405.147 15.368 405.531 13.724 406.299 12.284C407.091 10.844 408.171 9.728 409.539 8.936C410.931 8.12 412.563 7.712 414.435 7.712C416.187 7.712 417.735 8.096 419.079 8.864C420.423 9.632 421.467 10.688 422.211 12.032C422.979 13.352 423.363 14.828 423.363 16.46C423.363 16.724 423.351 17 423.327 17.288C423.327 17.576 423.315 17.876 423.291 18.188H409.719C409.815 19.58 410.295 20.672 411.159 21.464C412.047 22.256 413.115 22.652 414.363 22.652C415.299 22.652 416.079 22.448 416.703 22.04C417.351 21.608 417.831 21.056 418.143 20.384H422.823C422.487 21.512 421.923 22.544 421.131 23.48C420.363 24.392 419.403 25.112 418.251 25.64C417.123 26.168 415.839 26.432 414.399 26.432ZM414.435 11.456C413.307 11.456 412.311 11.78 411.447 12.428C410.583 13.052 410.031 14.012 409.791 15.308H418.683C418.611 14.132 418.179 13.196 417.387 12.5C416.595 11.804 415.611 11.456 414.435 11.456ZM434.618 26.432C433.034 26.432 431.642 26.18 430.442 25.676C429.242 25.148 428.282 24.428 427.562 23.516C426.842 22.604 426.41 21.548 426.266 20.348H430.91C431.054 21.044 431.438 21.644 432.062 22.148C432.71 22.628 433.538 22.868 434.546 22.868C435.554 22.868 436.286 22.664 436.742 22.256C437.222 21.848 437.462 21.38 437.462 20.852C437.462 20.084 437.126 19.568 436.454 19.304C435.782 19.016 434.846 18.74 433.646 18.476C432.878 18.308 432.098 18.104 431.306 17.864C430.514 17.624 429.782 17.324 429.11 16.964C428.462 16.58 427.934 16.1 427.526 15.524C427.118 14.924 426.914 14.192 426.914 13.328C426.914 11.744 427.538 10.412 428.786 9.332C430.058 8.252 431.834 7.712 434.114 7.712C436.226 7.712 437.906 8.204 439.154 9.188C440.426 10.172 441.182 11.528 441.422 13.256H437.066C436.802 11.936 435.806 11.276 434.078 11.276C433.214 11.276 432.542 11.444 432.062 11.78C431.606 12.116 431.378 12.536 431.378 13.04C431.378 13.568 431.726 13.988 432.422 14.3C433.118 14.612 434.042 14.9 435.194 15.164C436.442 15.452 437.582 15.776 438.614 16.136C439.67 16.472 440.51 16.988 441.134 17.684C441.758 18.356 442.07 19.328 442.07 20.6C442.094 21.704 441.806 22.7 441.206 23.588C440.606 24.476 439.742 25.172 438.614 25.676C437.486 26.18 436.154 26.432 434.618 26.432ZM447.125 18.044L446.621 0.799998H451.553L451.013 18.044H447.125ZM449.177 26.252C448.313 26.252 447.605 25.988 447.053 25.46C446.525 24.932 446.261 24.296 446.261 23.552C446.261 22.784 446.525 22.136 447.053 21.608C447.605 21.08 448.313 20.816 449.177 20.816C449.993 20.816 450.665 21.08 451.193 21.608C451.745 22.136 452.021 22.784 452.021 23.552C452.021 24.296 451.745 24.932 451.193 25.46C450.665 25.988 449.993 26.252 449.177 26.252ZM0.552 77L6.696 60.2H10.152L16.296 77H13.032L11.688 73.112H5.136L3.768 77H0.552ZM5.976 70.712H10.848L8.4 63.728L5.976 70.712ZM18.3881 77V65.096H21.1001L21.3401 67.112C21.7081 66.408 22.2361 65.848 22.9241 65.432C23.6281 65.016 24.4521 64.808 25.3961 64.808C26.8681 64.808 28.0121 65.272 28.8281 66.2C29.6441 67.128 30.0521 68.488 30.0521 70.28V77H26.9801V70.568C26.9801 69.544 26.7721 68.76 26.3561 68.216C25.9401 67.672 25.2921 67.4 24.4121 67.4C23.5481 67.4 22.8361 67.704 22.2761 68.312C21.7321 68.92 21.4601 69.768 21.4601 70.856V77H18.3881ZM117.818 77L114.338 65.096H117.386L119.45 73.664L121.85 65.096H125.258L127.658 73.664L129.746 65.096H132.794L129.29 77H126.098L123.554 68.096L121.01 77H117.818ZM138.227 77.288C137.203 77.288 136.363 77.128 135.707 76.808C135.051 76.472 134.563 76.032 134.243 75.488C133.923 74.944 133.763 74.344 133.763 73.688C133.763 72.584 134.195 71.688 135.059 71C135.923 70.312 137.219 69.968 138.947 69.968H141.971V69.68C141.971 68.864 141.739 68.264 141.275 67.88C140.811 67.496 140.235 67.304 139.547 67.304C138.923 67.304 138.379 67.456 137.915 67.76C137.451 68.048 137.163 68.48 137.051 69.056H134.051C134.131 68.192 134.419 67.44 134.915 66.8C135.427 66.16 136.083 65.672 136.883 65.336C137.683 64.984 138.579 64.808 139.571 64.808C141.267 64.808 142.603 65.232 143.579 66.08C144.555 66.928 145.043 68.128 145.043 69.68V77H142.427L142.139 75.08C141.787 75.72 141.291 76.248 140.651 76.664C140.027 77.08 139.219 77.288 138.227 77.288ZM138.923 74.888C139.803 74.888 140.483 74.6 140.963 74.024C141.459 73.448 141.771 72.736 141.899 71.888H139.283C138.467 71.888 137.883 72.04 137.531 72.344C137.179 72.632 137.003 72.992 137.003 73.424C137.003 73.888 137.179 74.248 137.531 74.504C137.883 74.76 138.347 74.888 138.923 74.888ZM149.064 82.28L151.824 76.208H151.104L146.472 65.096H149.808L153.144 73.472L156.624 65.096H159.888L152.328 82.28H149.064ZM172.919 77C171.671 77 170.671 76.696 169.919 76.088C169.167 75.48 168.791 74.4 168.791 72.848V67.664H166.751V65.096H168.791L169.151 61.904H171.863V65.096H175.079V67.664H171.863V72.872C171.863 73.448 171.983 73.848 172.223 74.072C172.479 74.28 172.911 74.384 173.519 74.384H175.007V77H172.919ZM183.124 77.288C181.972 77.288 180.932 77.024 180.004 76.496C179.092 75.968 178.364 75.24 177.82 74.312C177.292 73.368 177.028 72.28 177.028 71.048C177.028 69.816 177.3 68.736 177.844 67.808C178.388 66.864 179.116 66.128 180.028 65.6C180.956 65.072 181.996 64.808 183.148 64.808C184.284 64.808 185.308 65.072 186.22 65.6C187.148 66.128 187.876 66.864 188.404 67.808C188.948 68.736 189.22 69.816 189.22 71.048C189.22 72.28 188.948 73.368 188.404 74.312C187.876 75.24 187.148 75.968 186.22 76.496C185.292 77.024 184.26 77.288 183.124 77.288ZM183.124 74.624C183.924 74.624 184.62 74.328 185.212 73.736C185.804 73.128 186.1 72.232 186.1 71.048C186.1 69.864 185.804 68.976 185.212 68.384C184.62 67.776 183.932 67.472 183.148 67.472C182.332 67.472 181.628 67.776 181.036 68.384C180.46 68.976 180.172 69.864 180.172 71.048C180.172 72.232 180.46 73.128 181.036 73.736C181.628 74.328 182.324 74.624 183.124 74.624ZM335.864 63.248C335.304 63.248 334.84 63.08 334.472 62.744C334.12 62.408 333.944 61.984 333.944 61.472C333.944 60.96 334.12 60.544 334.472 60.224C334.84 59.888 335.304 59.72 335.864 59.72C336.424 59.72 336.88 59.888 337.232 60.224C337.6 60.544 337.784 60.96 337.784 61.472C337.784 61.984 337.6 62.408 337.232 62.744C336.88 63.08 336.424 63.248 335.864 63.248ZM334.328 77V65.096H337.4V77H334.328ZM340.607 77V65.096H343.319L343.559 67.112C343.927 66.408 344.455 65.848 345.143 65.432C345.847 65.016 346.671 64.808 347.615 64.808C349.087 64.808 350.231 65.272 351.047 66.2C351.863 67.128 352.271 68.488 352.271 70.28V77H349.199V70.568C349.199 69.544 348.991 68.76 348.575 68.216C348.159 67.672 347.511 67.4 346.631 67.4C345.767 67.4 345.055 67.704 344.495 68.312C343.951 68.92 343.679 69.768 343.679 70.856V77H340.607ZM355.76 77V67.664H354.128V65.096H355.76V63.704C355.76 62.264 356.12 61.24 356.84 60.632C357.576 60.024 358.568 59.72 359.816 59.72H361.136V62.336H360.296C359.768 62.336 359.392 62.44 359.168 62.648C358.944 62.856 358.832 63.208 358.832 63.704V65.096H361.4V67.664H358.832V77H355.76ZM369.077 77.288C367.925 77.288 366.885 77.024 365.957 76.496C365.045 75.968 364.317 75.24 363.773 74.312C363.245 73.368 362.981 72.28 362.981 71.048C362.981 69.816 363.253 68.736 363.797 67.808C364.341 66.864 365.069 66.128 365.981 65.6C366.909 65.072 367.949 64.808 369.101 64.808C370.237 64.808 371.261 65.072 372.173 65.6C373.101 66.128 373.829 66.864 374.357 67.808C374.901 68.736 375.173 69.816 375.173 71.048C375.173 72.28 374.901 73.368 374.357 74.312C373.829 75.24 373.101 75.968 372.173 76.496C371.245 77.024 370.213 77.288 369.077 77.288ZM369.077 74.624C369.877 74.624 370.573 74.328 371.165 73.736C371.757 73.128 372.053 72.232 372.053 71.048C372.053 69.864 371.757 68.976 371.165 68.384C370.573 67.776 369.885 67.472 369.101 67.472C368.285 67.472 367.581 67.776 366.989 68.384C366.413 68.976 366.125 69.864 366.125 71.048C366.125 72.232 366.413 73.128 366.989 73.736C367.581 74.328 368.277 74.624 369.077 74.624ZM387.742 77.288C386.718 77.288 385.878 77.128 385.222 76.808C384.566 76.472 384.078 76.032 383.758 75.488C383.438 74.944 383.278 74.344 383.278 73.688C383.278 72.584 383.71 71.688 384.574 71C385.438 70.312 386.734 69.968 388.462 69.968H391.486V69.68C391.486 68.864 391.254 68.264 390.79 67.88C390.326 67.496 389.75 67.304 389.062 67.304C388.438 67.304 387.894 67.456 387.43 67.76C386.966 68.048 386.678 68.48 386.566 69.056H383.566C383.646 68.192 383.934 67.44 384.43 66.8C384.942 66.16 385.598 65.672 386.398 65.336C387.198 64.984 388.094 64.808 389.086 64.808C390.782 64.808 392.118 65.232 393.094 66.08C394.07 66.928 394.558 68.128 394.558 69.68V77H391.942L391.654 75.08C391.302 75.72 390.806 76.248 390.166 76.664C389.542 77.08 388.734 77.288 387.742 77.288ZM388.438 74.888C389.318 74.888 389.998 74.6 390.478 74.024C390.974 73.448 391.286 72.736 391.414 71.888H388.798C387.982 71.888 387.398 72.04 387.046 72.344C386.694 72.632 386.518 72.992 386.518 73.424C386.518 73.888 386.694 74.248 387.046 74.504C387.398 74.76 387.862 74.888 388.438 74.888ZM404.546 77.288C403.65 77.288 402.866 77.12 402.194 76.784C401.522 76.448 400.978 75.976 400.562 75.368L400.226 77H397.49V59.72H400.562V66.8C400.946 66.272 401.45 65.808 402.074 65.408C402.714 65.008 403.538 64.808 404.546 64.808C405.666 64.808 406.666 65.08 407.546 65.624C408.426 66.168 409.122 66.912 409.634 67.856C410.146 68.8 410.402 69.872 410.402 71.072C410.402 72.272 410.146 73.344 409.634 74.288C409.122 75.216 408.426 75.952 407.546 76.496C406.666 77.024 405.666 77.288 404.546 77.288ZM403.898 74.6C404.874 74.6 405.682 74.272 406.322 73.616C406.962 72.96 407.282 72.112 407.282 71.072C407.282 70.032 406.962 69.176 406.322 68.504C405.682 67.832 404.874 67.496 403.898 67.496C402.906 67.496 402.09 67.832 401.45 68.504C400.826 69.16 400.514 70.008 400.514 71.048C400.514 72.088 400.826 72.944 401.45 73.616C402.09 74.272 402.906 74.6 403.898 74.6ZM418.858 77.288C417.706 77.288 416.666 77.024 415.738 76.496C414.826 75.968 414.098 75.24 413.554 74.312C413.026 73.368 412.762 72.28 412.762 71.048C412.762 69.816 413.034 68.736 413.578 67.808C414.122 66.864 414.85 66.128 415.762 65.6C416.69 65.072 417.73 64.808 418.882 64.808C420.018 64.808 421.042 65.072 421.954 65.6C422.882 66.128 423.61 66.864 424.138 67.808C424.682 68.736 424.954 69.816 424.954 71.048C424.954 72.28 424.682 73.368 424.138 74.312C423.61 75.24 422.882 75.968 421.954 76.496C421.026 77.024 419.994 77.288 418.858 77.288ZM418.858 74.624C419.658 74.624 420.354 74.328 420.946 73.736C421.538 73.128 421.834 72.232 421.834 71.048C421.834 69.864 421.538 68.976 420.946 68.384C420.354 67.776 419.666 67.472 418.882 67.472C418.066 67.472 417.362 67.776 416.77 68.384C416.194 68.976 415.906 69.864 415.906 71.048C415.906 72.232 416.194 73.128 416.77 73.736C417.362 74.328 418.058 74.624 418.858 74.624ZM439.173 65.096V77H436.461L436.221 74.984C435.853 75.688 435.317 76.248 434.613 76.664C433.925 77.08 433.109 77.288 432.165 77.288C430.693 77.288 429.549 76.824 428.733 75.896C427.917 74.968 427.509 73.608 427.509 71.816V65.096H430.581V71.528C430.581 72.552 430.789 73.336 431.205 73.88C431.621 74.424 432.269 74.696 433.149 74.696C434.013 74.696 434.717 74.392 435.261 73.784C435.821 73.176 436.101 72.328 436.101 71.24V65.096H439.173ZM447.606 77C446.358 77 445.358 76.696 444.606 76.088C443.854 75.48 443.478 74.4 443.478 72.848V67.664H441.438V65.096H443.478L443.838 61.904H446.55V65.096H449.766V67.664H446.55V72.872C446.55 73.448 446.67 73.848 446.91 74.072C447.166 74.28 447.598 74.384 448.206 74.384H449.694V77H447.606ZM0.552 108L6.696 91.2H10.152L16.296 108H13.032L11.688 104.112H5.136L3.768 108H0.552ZM5.976 101.712H10.848L8.4 94.728L5.976 101.712ZM25.1072 108.288C23.4112 108.288 21.9552 107.928 20.7392 107.208C19.5232 106.472 18.5872 105.456 17.9312 104.16C17.2752 102.848 16.9472 101.336 16.9472 99.624C16.9472 97.912 17.2752 96.4 17.9312 95.088C18.5872 93.776 19.5232 92.752 20.7392 92.016C21.9552 91.28 23.4112 90.912 25.1072 90.912C27.1232 90.912 28.7712 91.416 30.0512 92.424C31.3472 93.416 32.1552 94.816 32.4752 96.624H29.0912C28.8832 95.712 28.4352 95 27.7472 94.488C27.0752 93.96 26.1792 93.696 25.0592 93.696C23.5072 93.696 22.2912 94.224 21.4112 95.28C20.5312 96.336 20.0912 97.784 20.0912 99.624C20.0912 101.464 20.5312 102.912 21.4112 103.968C22.2912 105.008 23.5072 105.528 25.0592 105.528C26.1792 105.528 27.0752 105.288 27.7472 104.808C28.4352 104.312 28.8832 103.632 29.0912 102.768H32.4752C32.1552 104.496 31.3472 105.848 30.0512 106.824C28.7712 107.8 27.1232 108.288 25.1072 108.288ZM35.1945 108V91.2H38.8425L44.1945 101.856L49.4745 91.2H53.1225V108H50.0505V96.408L45.3705 105.6H42.9465L38.2665 96.408V108H35.1945ZM67.8128 108.288C66.6128 108.288 65.5488 108.032 64.6208 107.52C63.6928 107.008 62.9648 106.288 62.4368 105.36C61.9088 104.432 61.6448 103.36 61.6448 102.144C61.6448 100.912 61.9008 99.816 62.4128 98.856C62.9408 97.896 63.6608 97.152 64.5728 96.624C65.5008 96.08 66.5888 95.808 67.8368 95.808C69.0048 95.808 70.0368 96.064 70.9328 96.576C71.8288 97.088 72.5248 97.792 73.0208 98.688C73.5328 99.568 73.7888 100.552 73.7888 101.64C73.7888 101.816 73.7808 102 73.7648 102.192C73.7648 102.384 73.7568 102.584 73.7408 102.792H64.6928C64.7568 103.72 65.0768 104.448 65.6528 104.976C66.2448 105.504 66.9568 105.768 67.7888 105.768C68.4128 105.768 68.9328 105.632 69.3488 105.36C69.7808 105.072 70.1008 104.704 70.3088 104.256H73.4288C73.2048 105.008 72.8288 105.696 72.3008 106.32C71.7888 106.928 71.1488 107.408 70.3808 107.76C69.6288 108.112 68.7728 108.288 67.8128 108.288ZM67.8368 98.304C67.0848 98.304 66.4208 98.52 65.8448 98.952C65.2688 99.368 64.9008 100.008 64.7408 100.872H70.6688C70.6208 100.088 70.3328 99.464 69.8048 99C69.2768 98.536 68.6208 98.304 67.8368 98.304ZM79.1198 108L74.7518 96.096H77.9678L80.9918 105.096L84.0158 96.096H87.2318L82.8398 108H79.1198ZM94.3674 108.288C93.1674 108.288 92.1034 108.032 91.1754 107.52C90.2474 107.008 89.5194 106.288 88.9914 105.36C88.4634 104.432 88.1994 103.36 88.1994 102.144C88.1994 100.912 88.4554 99.816 88.9674 98.856C89.4954 97.896 90.2154 97.152 91.1274 96.624C92.0554 96.08 93.1434 95.808 94.3914 95.808C95.5594 95.808 96.5914 96.064 97.4874 96.576C98.3834 97.088 99.0794 97.792 99.5754 98.688C100.087 99.568 100.343 100.552 100.343 101.64C100.343 101.816 100.335 102 100.319 102.192C100.319 102.384 100.311 102.584 100.295 102.792H91.2474C91.3114 103.72 91.6314 104.448 92.2074 104.976C92.7994 105.504 93.5114 105.768 94.3434 105.768C94.9674 105.768 95.4874 105.632 95.9034 105.36C96.3354 105.072 96.6554 104.704 96.8634 104.256H99.9834C99.7594 105.008 99.3834 105.696 98.8554 106.32C98.3434 106.928 97.7034 107.408 96.9354 107.76C96.1834 108.112 95.3274 108.288 94.3674 108.288ZM94.3914 98.304C93.6394 98.304 92.9754 98.52 92.3994 98.952C91.8234 99.368 91.4554 100.008 91.2954 100.872H97.2234C97.1754 100.088 96.8874 99.464 96.3594 99C95.8314 98.536 95.1754 98.304 94.3914 98.304ZM102.927 108V96.096H105.639L105.879 98.112C106.247 97.408 106.775 96.848 107.463 96.432C108.167 96.016 108.991 95.808 109.935 95.808C111.407 95.808 112.551 96.272 113.367 97.2C114.183 98.128 114.591 99.488 114.591 101.28V108H111.519V101.568C111.519 100.544 111.311 99.76 110.895 99.216C110.479 98.672 109.831 98.4 108.951 98.4C108.087 98.4 107.375 98.704 106.815 99.312C106.271 99.92 105.999 100.768 105.999 101.856V108H102.927ZM122.833 108C121.585 108 120.585 107.696 119.833 107.088C119.081 106.48 118.705 105.4 118.705 103.848V98.664H116.665V96.096H118.705L119.065 92.904H121.777V96.096H124.993V98.664H121.777V103.872C121.777 104.448 121.897 104.848 122.137 105.072C122.393 105.28 122.825 105.384 123.433 105.384H124.921V108H122.833ZM132.55 108.288C131.494 108.288 130.566 108.12 129.766 107.784C128.966 107.432 128.326 106.952 127.846 106.344C127.366 105.736 127.078 105.032 126.982 104.232H130.078C130.174 104.696 130.43 105.096 130.846 105.432C131.278 105.752 131.83 105.912 132.502 105.912C133.174 105.912 133.662 105.776 133.966 105.504C134.286 105.232 134.446 104.92 134.446 104.568C134.446 104.056 134.222 103.712 133.774 103.536C133.326 103.344 132.702 103.16 131.902 102.984C131.39 102.872 130.87 102.736 130.342 102.576C129.814 102.416 129.326 102.216 128.878 101.976C128.446 101.72 128.094 101.4 127.822 101.016C127.55 100.616 127.414 100.128 127.414 99.552C127.414 98.496 127.83 97.608 128.662 96.888C129.51 96.168 130.694 95.808 132.214 95.808C133.622 95.808 134.742 96.136 135.574 96.792C136.422 97.448 136.926 98.352 137.086 99.504H134.182C134.006 98.624 133.342 98.184 132.19 98.184C131.614 98.184 131.166 98.296 130.846 98.52C130.542 98.744 130.39 99.024 130.39 99.36C130.39 99.712 130.622 99.992 131.086 100.2C131.55 100.408 132.166 100.6 132.934 100.776C133.766 100.968 134.526 101.184 135.214 101.424C135.918 101.648 136.478 101.992 136.894 102.456C137.31 102.904 137.518 103.552 137.518 104.4C137.534 105.136 137.342 105.8 136.942 106.392C136.542 106.984 135.966 107.448 135.214 107.784C134.462 108.12 133.574 108.288 132.55 108.288ZM140.888 102.696L140.552 91.2H143.84L143.48 102.696H140.888ZM142.256 108.168C141.68 108.168 141.208 107.992 140.84 107.64C140.488 107.288 140.312 106.864 140.312 106.368C140.312 105.856 140.488 105.424 140.84 105.072C141.208 104.72 141.68 104.544 142.256 104.544C142.8 104.544 143.248 104.72 143.6 105.072C143.968 105.424 144.152 105.856 144.152 106.368C144.152 106.864 143.968 107.288 143.6 107.64C143.248 107.992 142.8 108.168 142.256 108.168Z" fill="black"/>
<path d="M44.4924 77.288C43.2924 77.288 42.2284 77.032 41.3004 76.52C40.3724 76.008 39.6444 75.288 39.1164 74.36C38.5884 73.432 38.3244 72.36 38.3244 71.144C38.3244 69.912 38.5804 68.816 39.0924 67.856C39.6204 66.896 40.3404 66.152 41.2524 65.624C42.1804 65.08 43.2684 64.808 44.5164 64.808C45.6844 64.808 46.7164 65.064 47.6124 65.576C48.5084 66.088 49.2044 66.792 49.7004 67.688C50.2124 68.568 50.4684 69.552 50.4684 70.64C50.4684 70.816 50.4604 71 50.4444 71.192C50.4444 71.384 50.4364 71.584 50.4204 71.792H41.3724C41.4364 72.72 41.7564 73.448 42.3324 73.976C42.9244 74.504 43.6364 74.768 44.4684 74.768C45.0924 74.768 45.6124 74.632 46.0284 74.36C46.4604 74.072 46.7804 73.704 46.9884 73.256H50.1084C49.8844 74.008 49.5084 74.696 48.9804 75.32C48.4684 75.928 47.8284 76.408 47.0604 76.76C46.3084 77.112 45.4524 77.288 44.4924 77.288ZM44.5164 67.304C43.7644 67.304 43.1004 67.52 42.5244 67.952C41.9484 68.368 41.5804 69.008 41.4204 69.872H47.3484C47.3004 69.088 47.0124 68.464 46.4844 68C45.9564 67.536 45.3004 67.304 44.5164 67.304ZM57.1562 77.288C56.1322 77.288 55.2922 77.128 54.6362 76.808C53.9802 76.472 53.4922 76.032 53.1722 75.488C52.8522 74.944 52.6922 74.344 52.6922 73.688C52.6922 72.584 53.1242 71.688 53.9882 71C54.8522 70.312 56.1482 69.968 57.8762 69.968H60.9002V69.68C60.9002 68.864 60.6682 68.264 60.2042 67.88C59.7402 67.496 59.1642 67.304 58.4762 67.304C57.8522 67.304 57.3082 67.456 56.8442 67.76C56.3802 68.048 56.0922 68.48 55.9802 69.056H52.9802C53.0602 68.192 53.3482 67.44 53.8442 66.8C54.3562 66.16 55.0122 65.672 55.8122 65.336C56.6122 64.984 57.5082 64.808 58.5002 64.808C60.1962 64.808 61.5322 65.232 62.5082 66.08C63.4842 66.928 63.9722 68.128 63.9722 69.68V77H61.3562L61.0682 75.08C60.7162 75.72 60.2202 76.248 59.5802 76.664C58.9562 77.08 58.1482 77.288 57.1562 77.288ZM57.8522 74.888C58.7322 74.888 59.4122 74.6 59.8922 74.024C60.3882 73.448 60.7002 72.736 60.8282 71.888H58.2122C57.3962 71.888 56.8122 72.04 56.4602 72.344C56.1082 72.632 55.9322 72.992 55.9322 73.424C55.9322 73.888 56.1082 74.248 56.4602 74.504C56.8122 74.76 57.2762 74.888 57.8522 74.888ZM71.8238 77.288C70.7678 77.288 69.8398 77.12 69.0398 76.784C68.2398 76.432 67.5998 75.952 67.1198 75.344C66.6398 74.736 66.3518 74.032 66.2558 73.232H69.3518C69.4478 73.696 69.7038 74.096 70.1198 74.432C70.5518 74.752 71.1038 74.912 71.7758 74.912C72.4478 74.912 72.9358 74.776 73.2398 74.504C73.5598 74.232 73.7198 73.92 73.7198 73.568C73.7198 73.056 73.4958 72.712 73.0478 72.536C72.5998 72.344 71.9758 72.16 71.1758 71.984C70.6638 71.872 70.1438 71.736 69.6158 71.576C69.0878 71.416 68.5998 71.216 68.1518 70.976C67.7198 70.72 67.3678 70.4 67.0958 70.016C66.8238 69.616 66.6878 69.128 66.6878 68.552C66.6878 67.496 67.1038 66.608 67.9358 65.888C68.7838 65.168 69.9678 64.808 71.4878 64.808C72.8958 64.808 74.0158 65.136 74.8478 65.792C75.6958 66.448 76.1998 67.352 76.3598 68.504H73.4558C73.2798 67.624 72.6158 67.184 71.4638 67.184C70.8878 67.184 70.4398 67.296 70.1198 67.52C69.8158 67.744 69.6638 68.024 69.6638 68.36C69.6638 68.712 69.8958 68.992 70.3598 69.2C70.8238 69.408 71.4398 69.6 72.2078 69.776C73.0398 69.968 73.7998 70.184 74.4878 70.424C75.1918 70.648 75.7518 70.992 76.1678 71.456C76.5838 71.904 76.7918 72.552 76.7918 73.4C76.8078 74.136 76.6158 74.8 76.2158 75.392C75.8158 75.984 75.2398 76.448 74.4878 76.784C73.7358 77.12 72.8478 77.288 71.8238 77.288ZM81.1691 63.248C80.6091 63.248 80.1451 63.08 79.7771 62.744C79.4251 62.408 79.2491 61.984 79.2491 61.472C79.2491 60.96 79.4251 60.544 79.7771 60.224C80.1451 59.888 80.6091 59.72 81.1691 59.72C81.7291 59.72 82.1851 59.888 82.5371 60.224C82.9051 60.544 83.0891 60.96 83.0891 61.472C83.0891 61.984 82.9051 62.408 82.5371 62.744C82.1851 63.08 81.7291 63.248 81.1691 63.248ZM79.6331 77V65.096H82.7051V77H79.6331ZM91.6956 77.288C90.4956 77.288 89.4316 77.032 88.5036 76.52C87.5756 76.008 86.8476 75.288 86.3196 74.36C85.7916 73.432 85.5276 72.36 85.5276 71.144C85.5276 69.912 85.7836 68.816 86.2956 67.856C86.8236 66.896 87.5436 66.152 88.4556 65.624C89.3836 65.08 90.4716 64.808 91.7196 64.808C92.8876 64.808 93.9196 65.064 94.8156 65.576C95.7116 66.088 96.4076 66.792 96.9036 67.688C97.4156 68.568 97.6716 69.552 97.6716 70.64C97.6716 70.816 97.6636 71 97.6476 71.192C97.6476 71.384 97.6396 71.584 97.6236 71.792H88.5756C88.6396 72.72 88.9596 73.448 89.5356 73.976C90.1276 74.504 90.8396 74.768 91.6716 74.768C92.2956 74.768 92.8156 74.632 93.2316 74.36C93.6636 74.072 93.9836 73.704 94.1916 73.256H97.3116C97.0876 74.008 96.7116 74.696 96.1836 75.32C95.6716 75.928 95.0316 76.408 94.2636 76.76C93.5116 77.112 92.6556 77.288 91.6956 77.288ZM91.7196 67.304C90.9676 67.304 90.3036 67.52 89.7276 67.952C89.1516 68.368 88.7836 69.008 88.6236 69.872H94.5516C94.5036 69.088 94.2156 68.464 93.6876 68C93.1596 67.536 92.5036 67.304 91.7196 67.304ZM100.255 77V65.096H102.991L103.279 67.328C103.711 66.56 104.295 65.952 105.031 65.504C105.783 65.04 106.663 64.808 107.671 64.808V68.048H106.807C106.135 68.048 105.535 68.152 105.007 68.36C104.479 68.568 104.063 68.928 103.759 69.44C103.471 69.952 103.327 70.664 103.327 71.576V77H100.255Z" fill="#528593"/>
<path d="M202.605 77.288C201.549 77.288 200.621 77.12 199.821 76.784C199.021 76.432 198.381 75.952 197.901 75.344C197.421 74.736 197.133 74.032 197.037 73.232H200.133C200.229 73.696 200.485 74.096 200.901 74.432C201.333 74.752 201.885 74.912 202.557 74.912C203.229 74.912 203.717 74.776 204.021 74.504C204.341 74.232 204.501 73.92 204.501 73.568C204.501 73.056 204.277 72.712 203.829 72.536C203.381 72.344 202.757 72.16 201.957 71.984C201.445 71.872 200.925 71.736 200.397 71.576C199.869 71.416 199.381 71.216 198.933 70.976C198.501 70.72 198.149 70.4 197.877 70.016C197.605 69.616 197.469 69.128 197.469 68.552C197.469 67.496 197.885 66.608 198.717 65.888C199.565 65.168 200.749 64.808 202.269 64.808C203.677 64.808 204.797 65.136 205.629 65.792C206.477 66.448 206.981 67.352 207.141 68.504H204.237C204.061 67.624 203.397 67.184 202.245 67.184C201.669 67.184 201.221 67.296 200.901 67.52C200.597 67.744 200.445 68.024 200.445 68.36C200.445 68.712 200.677 68.992 201.141 69.2C201.605 69.408 202.221 69.6 202.989 69.776C203.821 69.968 204.581 70.184 205.269 70.424C205.973 70.648 206.533 70.992 206.949 71.456C207.365 71.904 207.573 72.552 207.573 73.4C207.589 74.136 207.397 74.8 206.997 75.392C206.597 75.984 206.021 76.448 205.269 76.784C204.517 77.12 203.629 77.288 202.605 77.288ZM215.223 77C213.975 77 212.975 76.696 212.223 76.088C211.471 75.48 211.095 74.4 211.095 72.848V67.664H209.055V65.096H211.095L211.455 61.904H214.167V65.096H217.383V67.664H214.167V72.872C214.167 73.448 214.287 73.848 214.527 74.072C214.783 74.28 215.215 74.384 215.823 74.384H217.311V77H215.223ZM225.428 77.288C224.276 77.288 223.236 77.024 222.308 76.496C221.396 75.968 220.668 75.24 220.124 74.312C219.596 73.368 219.332 72.28 219.332 71.048C219.332 69.816 219.604 68.736 220.148 67.808C220.692 66.864 221.42 66.128 222.332 65.6C223.26 65.072 224.3 64.808 225.452 64.808C226.588 64.808 227.612 65.072 228.524 65.6C229.452 66.128 230.18 66.864 230.708 67.808C231.252 68.736 231.524 69.816 231.524 71.048C231.524 72.28 231.252 73.368 230.708 74.312C230.18 75.24 229.452 75.968 228.524 76.496C227.596 77.024 226.564 77.288 225.428 77.288ZM225.428 74.624C226.228 74.624 226.924 74.328 227.516 73.736C228.108 73.128 228.404 72.232 228.404 71.048C228.404 69.864 228.108 68.976 227.516 68.384C226.924 67.776 226.236 67.472 225.452 67.472C224.636 67.472 223.932 67.776 223.34 68.384C222.764 68.976 222.476 69.864 222.476 71.048C222.476 72.232 222.764 73.128 223.34 73.736C223.932 74.328 224.628 74.624 225.428 74.624ZM234.271 77V65.096H237.007L237.295 67.328C237.727 66.56 238.311 65.952 239.047 65.504C239.799 65.04 240.679 64.808 241.687 64.808V68.048H240.823C240.151 68.048 239.551 68.152 239.023 68.36C238.495 68.568 238.079 68.928 237.775 69.44C237.487 69.952 237.343 70.664 237.343 71.576V77H234.271ZM249.36 77.288C248.16 77.288 247.096 77.032 246.168 76.52C245.24 76.008 244.512 75.288 243.984 74.36C243.456 73.432 243.192 72.36 243.192 71.144C243.192 69.912 243.448 68.816 243.96 67.856C244.488 66.896 245.208 66.152 246.12 65.624C247.048 65.08 248.136 64.808 249.384 64.808C250.552 64.808 251.584 65.064 252.48 65.576C253.376 66.088 254.072 66.792 254.568 67.688C255.08 68.568 255.336 69.552 255.336 70.64C255.336 70.816 255.328 71 255.312 71.192C255.312 71.384 255.304 71.584 255.288 71.792H246.24C246.304 72.72 246.624 73.448 247.2 73.976C247.792 74.504 248.504 74.768 249.336 74.768C249.96 74.768 250.48 74.632 250.896 74.36C251.328 74.072 251.648 73.704 251.856 73.256H254.976C254.752 74.008 254.376 74.696 253.848 75.32C253.336 75.928 252.696 76.408 251.928 76.76C251.176 77.112 250.32 77.288 249.36 77.288ZM249.384 67.304C248.632 67.304 247.968 67.52 247.392 67.952C246.816 68.368 246.448 69.008 246.288 69.872H252.216C252.168 69.088 251.88 68.464 251.352 68C250.824 67.536 250.168 67.304 249.384 67.304ZM263.422 71.336V68.768H267.934V64.616H270.55V68.768H275.038V71.336H270.55V75.488H267.934V71.336H263.422Z" fill="#684AFA"/>
<path d="M284.229 77V67.664H282.597V65.096H284.229V63.704C284.229 62.264 284.589 61.24 285.309 60.632C286.045 60.024 287.037 59.72 288.285 59.72H289.605V62.336H288.765C288.237 62.336 287.861 62.44 287.637 62.648C287.413 62.856 287.301 63.208 287.301 63.704V65.096H294.981V77H291.909V67.664H287.301V77H284.229ZM293.469 63.392C292.909 63.392 292.445 63.224 292.077 62.888C291.725 62.552 291.549 62.128 291.549 61.616C291.549 61.104 291.725 60.688 292.077 60.368C292.445 60.032 292.909 59.864 293.469 59.864C294.029 59.864 294.485 60.032 294.837 60.368C295.205 60.688 295.389 61.104 295.389 61.616C295.389 62.128 295.205 62.552 294.837 62.888C294.485 63.224 294.029 63.392 293.469 63.392ZM298.232 77V65.096H300.944L301.184 67.112C301.552 66.408 302.08 65.848 302.768 65.432C303.472 65.016 304.296 64.808 305.24 64.808C306.712 64.808 307.856 65.272 308.672 66.2C309.488 67.128 309.896 68.488 309.896 70.28V77H306.824V70.568C306.824 69.544 306.616 68.76 306.2 68.216C305.784 67.672 305.136 67.4 304.256 67.4C303.392 67.4 302.68 67.704 302.12 68.312C301.576 68.92 301.304 69.768 301.304 70.856V77H298.232ZM318.305 77.288C317.185 77.288 316.185 77.016 315.305 76.472C314.425 75.928 313.729 75.184 313.217 74.24C312.705 73.296 312.449 72.224 312.449 71.024C312.449 69.824 312.705 68.76 313.217 67.832C313.729 66.888 314.425 66.152 315.305 65.624C316.185 65.08 317.185 64.808 318.305 64.808C319.201 64.808 319.985 64.976 320.657 65.312C321.329 65.648 321.873 66.12 322.289 66.728V59.72H325.361V77H322.625L322.289 75.296C321.905 75.824 321.393 76.288 320.753 76.688C320.129 77.088 319.313 77.288 318.305 77.288ZM318.953 74.6C319.945 74.6 320.753 74.272 321.377 73.616C322.017 72.944 322.337 72.088 322.337 71.048C322.337 70.008 322.017 69.16 321.377 68.504C320.753 67.832 319.945 67.496 318.953 67.496C317.977 67.496 317.169 67.824 316.529 68.48C315.889 69.136 315.569 69.984 315.569 71.024C315.569 72.064 315.889 72.92 316.529 73.592C317.169 74.264 317.977 74.6 318.953 74.6Z" fill="#FC3B7D"/>
</svg>
